<svg width="61" height="60" viewBox="0 0 61 60" fill="none" xmlns="http://www.w3.org/2000/svg">
<path d="M30.7473 19.9957C25.2387 19.9957 20.7432 24.4913 20.7432 30C20.7432 35.5087 25.2387 40.0043 30.7473 40.0043C36.2559 40.0043 40.7514 35.5087 40.7514 30C40.7514 24.4913 36.2559 19.9957 30.7473 19.9957ZM60.752 30C60.752 25.8572 60.7895 21.7519 60.5569 17.6166C60.3242 12.8134 59.2285 8.55051 55.7162 5.03813C52.1964 1.51826 47.9411 0.430021 43.1379 0.197364C38.9952 -0.0352931 34.89 0.00223234 30.7548 0.00223234C26.6121 0.00223234 22.5069 -0.0352931 18.3717 0.197364C13.5685 0.430021 9.30572 1.52576 5.79341 5.03813C2.2736 8.55801 1.18538 12.8134 0.952731 17.6166C0.720079 21.7594 0.757603 25.8647 0.757603 30C0.757603 34.1353 0.720079 38.2481 0.952731 42.3834C1.18538 47.1866 2.2811 51.4495 5.79341 54.9619C9.31323 58.4817 13.5685 59.57 18.3717 59.8026C22.5144 60.0353 26.6196 59.9978 30.7548 59.9978C34.8975 59.9978 39.0027 60.0353 43.1379 59.8026C47.9411 59.57 52.2039 58.4742 55.7162 54.9619C59.236 51.442 60.3242 47.1866 60.5569 42.3834C60.7971 38.2481 60.752 34.1428 60.752 30V30ZM30.7473 45.3929C22.2292 45.3929 15.3547 38.5183 15.3547 30C15.3547 21.4817 22.2292 14.6071 30.7473 14.6071C39.2654 14.6071 46.1399 21.4817 46.1399 30C46.1399 38.5183 39.2654 45.3929 30.7473 45.3929ZM46.7703 17.5716C44.7815 17.5716 43.1755 15.9655 43.1755 13.9767C43.1755 11.9878 44.7815 10.3817 46.7703 10.3817C48.7591 10.3817 50.3652 11.9878 50.3652 13.9767C50.3658 14.4489 50.2732 14.9167 50.0928 15.3531C49.9123 15.7895 49.6475 16.1861 49.3136 16.52C48.9797 16.8539 48.5832 17.1187 48.1467 17.2992C47.7103 17.4796 47.2426 17.5722 46.7703 17.5716V17.5716Z" fill="#433633"/>
</svg>
