<svg width="62" height="62" viewBox="0 0 62 62" fill="none" xmlns="http://www.w3.org/2000/svg">
<path d="M19.433 25C17.9211 25 16.4432 25.4487 15.1866 26.2893C13.9299 27.1299 12.951 28.3246 12.3739 29.7219C11.7967 31.1193 11.6472 32.6566 11.9444 34.1389C12.2416 35.6213 12.9721 36.9822 14.0433 38.0491C15.1145 39.116 16.4782 39.841 17.9618 40.1322C19.4453 40.4235 20.982 40.2679 22.377 39.6851C23.7721 39.1023 24.9628 38.1186 25.7983 36.8586C26.6339 35.5986 27.0767 34.119 27.0706 32.6071C27.0626 30.5868 26.2543 28.6519 24.8228 27.2262C23.3914 25.8005 21.4533 25 19.433 25V25ZM19.433 36.6092C18.8801 36.6577 18.3232 36.5906 17.7976 36.4122C17.272 36.2339 16.7893 35.9482 16.3801 35.5732C15.9708 35.1983 15.6441 34.7423 15.4205 34.2343C15.197 33.7263 15.0815 33.1774 15.0815 32.6224C15.0815 32.0674 15.197 31.5184 15.4205 31.0104C15.6441 30.5024 15.9708 30.0464 16.3801 29.6715C16.7893 29.2966 17.272 29.0109 17.7976 28.8325C18.3232 28.6542 18.8801 28.5871 19.433 28.6355C19.9859 28.5871 20.5428 28.6542 21.0684 28.8325C21.594 29.0109 22.0767 29.2966 22.4859 29.6715C22.8951 30.0464 23.2219 30.5024 23.4455 31.0104C23.669 31.5184 23.7844 32.0674 23.7844 32.6224C23.7844 33.1774 23.669 33.7263 23.4455 34.2343C23.2219 34.7423 22.8951 35.1983 22.4859 35.5732C22.0767 35.9482 21.594 36.2339 21.0684 36.4122C20.5428 36.5906 19.9859 36.6577 19.433 36.6092V36.6092ZM41.9793 25C40.4674 25 38.9896 25.4487 37.7329 26.2893C36.4762 27.1299 35.4973 28.3246 34.9202 29.7219C34.343 31.1193 34.1935 32.6566 34.4907 34.1389C34.7879 35.6213 35.5184 36.9822 36.5896 38.0491C37.6608 39.116 39.0245 39.841 40.5081 40.1322C41.9917 40.4235 43.5283 40.2679 44.9233 39.6851C46.3184 39.1023 47.5091 38.1186 48.3446 36.8586C49.1802 35.5986 49.623 34.119 49.6169 32.6071C49.6089 30.5868 48.8006 28.6519 47.3692 27.2262C45.9377 25.8005 43.9996 25 41.9793 25V25ZM45.9814 32.6071C45.9875 33.3999 45.7579 34.1767 45.3218 34.8388C44.8858 35.501 44.2629 36.0187 43.5321 36.3263C42.8014 36.6339 41.9958 36.7175 41.2174 36.5666C40.4391 36.4156 39.7231 36.0369 39.1604 35.4784C38.5976 34.9199 38.2134 34.2069 38.0565 33.4297C37.8995 32.6526 37.977 31.8463 38.279 31.1132C38.581 30.3802 39.0939 29.7533 39.7527 29.3122C40.4115 28.8711 41.1865 28.6355 41.9793 28.6355C43.0355 28.6355 44.0488 29.0529 44.7985 29.7969C45.5482 30.5408 45.9734 31.551 45.9814 32.6071Z" fill="#433633"/>
<path d="M30.7062 0C24.6639 0 18.7572 1.79176 13.7332 5.1487C8.70922 8.50564 4.79348 13.277 2.48118 18.8594C0.168877 24.4417 -0.436126 30.5844 0.742674 36.5107C1.92147 42.4369 4.83113 47.8805 9.1037 52.1531C13.3763 56.4256 18.8199 59.3353 24.7461 60.5141C30.6723 61.6929 36.815 61.0879 42.3974 58.7756C47.9798 56.4633 52.7511 52.5475 56.1081 47.5235C59.465 42.4995 61.2568 36.5929 61.2568 30.5506C61.2568 26.5386 60.4666 22.5659 58.9312 18.8594C57.3959 15.1528 55.1456 11.7849 52.3087 8.94805C49.4718 6.11117 46.104 3.86083 42.3974 2.32552C38.6908 0.790214 34.7182 0 30.7062 0V0ZM53.2525 32.903C53.2556 35.0981 52.6177 37.2464 51.4172 39.0841C50.2167 40.9219 48.5058 42.3692 46.4944 43.2483C44.483 44.1275 42.2587 44.4003 40.0945 44.0333C37.9302 43.6662 35.9202 42.6753 34.3112 41.1821L30.7062 45.1232L27.1012 41.1821C26.01 42.1851 24.7319 42.9634 23.3399 43.4724C21.9478 43.9814 20.4692 44.2113 18.9883 44.1489C17.5075 44.0865 16.0534 43.733 14.7092 43.1087C13.3649 42.4843 12.1568 41.6013 11.1539 40.51C10.1509 39.4188 9.37263 38.1407 8.8636 36.7487C8.35456 35.3566 8.12469 33.878 8.1871 32.3971C8.24951 30.9163 8.60298 29.4622 9.22734 28.118C9.8517 26.7737 10.7347 25.5656 11.826 24.5626L8.1599 20.5911H16.3474C20.5809 17.6934 25.5913 16.1429 30.7215 16.1429C35.8517 16.1429 40.8621 17.6934 45.0955 20.5911H53.2525L49.5865 24.5932C50.7375 25.6507 51.6573 26.9348 52.2882 28.3648C52.9191 29.7948 53.2474 31.3399 53.2525 32.903V32.903Z" fill="#433633"/>
<path d="M39.1687 20.6956C36.4877 19.5763 33.6114 19 30.7062 19C27.801 19 24.9246 19.5763 22.2437 20.6956C24.6129 21.4861 26.6884 22.9735 28.1983 24.9631C29.7082 26.9528 30.5823 29.3519 30.7062 31.8465C30.8382 29.3542 31.7154 26.959 33.2242 24.9709C34.733 22.9828 36.8038 21.4934 39.1687 20.6956V20.6956Z" fill="#433633"/>
</svg>
